<?xml version="1.0" standalone="no"?>
<!DOCTYPE svg PUBLIC "-//W3C//DTD SVG 20010904//EN"
 "http://www.w3.org/TR/2001/REC-SVG-20010904/DTD/svg10.dtd">
<svg version="1.0" xmlns="http://www.w3.org/2000/svg"
 width="1280.000000pt" height="710.000000pt" viewBox="0 0 1280.000000 710.000000"
 preserveAspectRatio="xMidYMid meet">
<metadata>
Created by potrace 1.16, written by Peter Selinger 2001-2019
</metadata>
<g transform="translate(0.000000,710.000000) scale(0.100000,-0.100000)"
fill="#000000" stroke="none">
<path d="M3219 6370 c-9 -5 -57 -58 -107 -117 -50 -60 -135 -152 -189 -206
l-99 -98 -80 44 c-96 54 -187 109 -341 207 -65 41 -125 78 -134 82 -26 10 -61
-20 -57 -50 2 -21 33 -48 153 -134 83 -59 196 -135 252 -170 57 -35 102 -67
102 -73 0 -5 -64 -66 -141 -135 -78 -69 -173 -155 -212 -191 -67 -62 -198
-178 -452 -399 -60 -52 -111 -97 -114 -101 -3 -3 -50 -44 -106 -90 -55 -46
-154 -129 -220 -185 -65 -55 -163 -135 -217 -178 -111 -88 -344 -246 -363
-246 -7 0 -14 -3 -16 -7 -4 -10 -102 -59 -178 -89 -45 -19 -56 -28 -58 -49 -4
-33 13 -55 44 -55 31 0 132 38 234 89 45 23 84 40 86 38 2 -2 -4 -35 -15 -74
-19 -73 -16 -94 17 -119 13 -9 15 -133 16 -915 1 -850 0 -908 -18 -974 -26
-102 -25 -133 8 -162 15 -12 39 -23 54 -23 79 0 120 94 141 320 11 114 -17
807 -59 1480 -6 91 -15 236 -20 323 -5 87 -15 167 -21 178 -6 12 -9 22 -7 24
2 1 30 20 63 40 145 92 475 338 820 614 365 290 410 327 435 347 51 44 217
181 295 244 44 35 98 81 120 101 22 21 51 46 64 57 l25 19 255 -154 c141 -85
272 -165 291 -177 67 -44 616 -383 770 -476 85 -52 182 -111 215 -131 53 -34
182 -113 284 -176 77 -47 249 -141 313 -170 65 -31 67 -32 63 -65 -24 -185
-24 -171 -76 -1463 -18 -445 -6 -654 53 -877 33 -129 51 -155 111 -165 31 -5
40 -1 67 25 35 35 37 64 14 157 -8 33 -26 141 -40 240 -24 174 -26 207 -35
961 -8 680 -3 1093 12 1109 3 2 60 -14 127 -36 67 -21 142 -42 167 -46 82 -11
135 30 135 105 0 51 -27 85 -82 102 -237 75 -441 174 -1000 486 -142 79 -260
144 -262 144 -2 0 -63 34 -136 75 -73 41 -134 75 -135 75 -2 0 -78 43 -170 95
-92 52 -169 95 -170 95 -1 0 -42 23 -91 51 -49 28 -127 72 -174 97 -126 67
-394 214 -399 218 -2 2 17 27 43 56 195 221 286 347 286 396 0 66 -85 115
-141 82z"/>
<path d="M6271 6318 c-10 -29 -36 -828 -35 -1103 0 -220 8 -271 45 -319 34
-44 113 -32 165 26 28 30 121 207 175 333 24 55 49 109 56 119 11 18 14 16 31
-25 10 -24 47 -120 82 -212 48 -129 70 -173 92 -192 36 -31 56 -31 99 -2 42
27 77 95 160 312 34 88 68 168 75 178 14 21 11 28 69 -173 80 -279 110 -329
203 -338 63 -6 114 20 176 89 50 56 53 66 31 109 -25 49 -72 45 -132 -11 -24
-22 -48 -37 -53 -34 -5 3 -14 25 -20 48 -25 97 -102 331 -136 411 -41 98 -77
136 -129 136 -37 0 -86 -35 -109 -78 -43 -81 -70 -146 -118 -286 l-53 -155
-33 87 c-58 153 -126 302 -155 338 -25 30 -34 34 -77 34 -44 0 -52 -4 -73 -32
-33 -44 -72 -124 -147 -306 -46 -110 -66 -148 -73 -137 -4 9 -12 276 -16 595
-6 442 -11 583 -21 595 -20 24 -69 19 -79 -7z"/>
<path d="M8239 6315 c-53 -29 -61 -72 -67 -380 l-5 -280 -38 -1 c-91 -4 -181
-98 -230 -241 -34 -98 -34 -258 -1 -329 30 -64 73 -94 134 -94 59 0 117 42
172 124 l40 59 21 -64 c76 -224 170 -298 300 -234 62 30 106 78 160 178 21 38
41 65 45 60 4 -4 15 -30 24 -58 22 -69 82 -145 136 -173 58 -30 152 -27 220 8
63 32 80 52 80 99 0 67 -68 102 -130 66 -35 -20 -84 -19 -102 3 -37 43 -56
138 -70 349 -9 141 -8 182 7 301 24 190 23 221 -10 249 -35 30 -86 30 -121 0
-23 -20 -29 -38 -45 -137 -60 -360 -143 -634 -220 -732 -26 -32 -34 -37 -44
-26 -17 17 -39 88 -74 238 -58 246 -62 285 -49 486 9 135 9 218 1 321 -12 152
-27 197 -69 213 -32 12 -33 12 -65 -5z m-59 -790 c33 -39 -48 -313 -112 -382
-33 -36 -45 -28 -58 34 -23 108 9 250 72 327 32 39 75 48 98 21z"/>
<path d="M8903 6296 c-34 -29 -39 -92 -9 -125 41 -45 123 -35 151 19 46 89
-65 172 -142 106z"/>
<path d="M9664 5796 c-56 -25 -101 -75 -143 -158 -161 -321 -118 -660 78 -617
63 14 150 121 242 296 35 66 49 72 49 20 0 -51 47 -232 74 -285 13 -26 40 -62
60 -81 29 -28 45 -35 89 -39 65 -5 95 9 159 72 56 55 146 188 189 279 17 37
34 69 38 71 4 3 16 -48 26 -112 23 -152 57 -286 89 -354 46 -97 133 -123 212
-63 65 50 168 217 228 371 15 38 35 85 43 104 l16 35 33 -120 c40 -149 50
-177 87 -240 60 -102 133 -150 227 -149 55 0 77 6 140 38 128 64 263 193 276
263 13 72 -73 112 -118 56 -90 -111 -230 -213 -294 -213 -31 0 -71 35 -96 83
-22 44 -66 178 -93 287 -31 125 -77 265 -92 282 -37 42 -128 24 -153 -30 -7
-15 -43 -112 -80 -217 -37 -104 -79 -215 -93 -246 -34 -78 -97 -173 -106 -163
-12 14 -28 78 -61 244 -70 350 -93 416 -154 442 -55 22 -81 -5 -145 -152 -78
-179 -164 -340 -207 -384 -45 -47 -46 -48 -64 -30 -31 33 -70 184 -115 447
-19 112 -37 152 -78 168 -18 7 -43 24 -57 37 -58 56 -152 83 -206 58z m111
-129 c22 -12 41 -30 43 -38 3 -18 -20 -72 -119 -274 -117 -237 -144 -249 -135
-60 9 189 89 395 154 395 9 0 35 -11 57 -23z"/>
<path d="M2930 5610 c-14 -11 -58 -46 -98 -77 -56 -42 -70 -58 -60 -65 10 -7
8 -8 -5 -4 -12 4 -28 -4 -45 -20 -15 -15 -21 -23 -13 -19 10 6 12 4 7 -4 -4
-6 -13 -10 -20 -9 -18 4 -97 -62 -89 -75 3 -6 1 -7 -5 -3 -13 8 -121 -73 -121
-91 -1 -7 -8 -10 -16 -7 -8 4 -15 2 -15 -2 0 -5 -16 -20 -36 -33 -19 -13 -33
-30 -30 -37 3 -8 0 -11 -8 -8 -16 6 -84 -47 -79 -62 2 -6 -6 -15 -19 -18 -22
-7 -22 -7 -3 -17 17 -8 15 -8 -8 -4 -20 4 -34 -1 -55 -20 -15 -14 -23 -25 -19
-25 5 0 15 7 23 15 18 17 54 20 54 4 0 -5 -10 -9 -22 -7 -18 2 -24 -3 -27 -22
-1 -14 -8 -28 -14 -32 -8 -5 -3 -16 13 -33 14 -15 24 -29 23 -32 -1 -3 -17
-13 -35 -22 -24 -11 -28 -17 -15 -19 14 -3 17 -15 17 -81 0 -46 5 -84 13 -94
8 -12 39 -19 107 -26 52 -5 115 -15 140 -21 40 -10 82 -16 253 -36 26 -3 47
-10 47 -15 0 -5 14 -9 31 -9 l31 0 -7 -92 c-3 -51 -9 -104 -12 -118 -5 -24 -6
-24 -14 -5 -6 13 -7 -8 -3 -56 3 -50 2 -79 -5 -84 -17 -10 -13 -40 7 -57 15
-14 78 -16 493 -17 l477 -1 15 31 c8 17 17 27 20 23 7 -12 -100 -171 -178
-264 -130 -156 -251 -248 -405 -311 -80 -32 -92 -34 -200 -34 -103 0 -123 3
-188 29 -134 52 -251 147 -368 298 -59 77 -80 110 -157 248 -35 62 -47 76 -70
78 -32 4 -52 -9 -60 -38 -9 -36 110 -262 209 -395 59 -80 185 -204 260 -258
101 -72 259 -127 363 -127 l28 0 8 -137 c5 -76 9 -376 10 -668 0 -414 3 -535
13 -553 26 -46 97 -48 121 -3 7 13 11 132 11 338 1 292 -11 548 -40 853 -16
178 -16 177 28 184 106 19 229 72 347 151 92 61 277 244 360 355 53 71 117
173 122 195 1 6 6 24 12 40 9 28 9 29 10 5 1 -25 2 -25 94 -25 50 0 121 -2
157 -5 l65 -5 0 -160 c0 -88 4 -166 9 -174 12 -19 155 -10 189 11 l24 16 -4
186 c-2 151 -1 186 10 186 19 0 45 229 28 239 -9 6 -8 11 3 20 13 11 18 10 31
-3 9 -9 26 -15 38 -15 20 1 21 2 2 6 -30 8 -44 23 -38 40 4 11 3 14 -6 9 -13
-8 -51 20 -51 38 0 6 5 5 12 -2 7 -7 16 -12 22 -12 14 0 -67 59 -81 60 -7 0
-13 -5 -13 -12 0 -9 -3 -9 -12 0 -10 10 -10 15 2 22 12 7 8 10 -13 10 -16 0
-26 4 -23 9 3 5 -36 34 -87 65 -90 55 -275 171 -558 351 -77 50 -148 95 -157
100 -10 6 -80 52 -157 104 -77 52 -173 116 -213 143 -40 27 -78 46 -84 42 -6
-4 -8 -3 -5 3 4 6 -33 37 -80 69 -48 33 -107 74 -131 92 -24 17 -47 32 -50 32
-4 0 -18 -9 -32 -20z"/>
<path d="M6818 3909 c-10 -5 -18 -19 -18 -29 0 -19 -8 -20 -144 -20 -169 0
-196 -7 -196 -49 0 -15 6 -34 14 -40 8 -7 75 -14 166 -18 l153 -6 -7 -82 c-98
-1279 -96 -1497 11 -1541 29 -12 37 -12 61 0 15 8 34 26 42 41 12 22 12 31 0
58 -23 55 -32 389 -20 802 5 209 10 448 10 530 0 207 -5 195 94 195 169 0 390
29 434 56 32 21 31 78 -3 100 -21 14 -34 14 -92 5 -122 -20 -316 -41 -375 -41
-44 0 -58 3 -58 15 0 14 -29 35 -47 35 -4 0 -16 -5 -25 -11z"/>
<path d="M7241 3723 c-17 -14 -24 -39 -36 -123 -43 -313 -56 -776 -35 -1175
12 -211 20 -237 77 -243 56 -6 70 18 98 173 32 177 76 355 87 355 4 0 8 -5 8
-10 0 -6 9 -29 19 -53 11 -23 32 -71 46 -107 47 -113 96 -199 136 -235 32 -29
47 -35 83 -35 60 0 97 33 138 121 l32 69 20 -53 c33 -83 63 -124 110 -146 77
-38 137 -22 204 54 51 58 127 187 178 301 20 46 40 84 43 84 3 0 19 -44 34
-98 62 -211 111 -292 179 -292 63 0 100 54 219 319 l15 34 33 -103 c52 -165
111 -253 194 -291 80 -36 168 -16 236 52 48 49 110 144 117 178 8 40 -25 73
-69 69 -26 -3 -40 -15 -84 -78 -29 -41 -61 -81 -70 -87 -28 -21 -67 -15 -95
15 -36 38 -93 181 -133 332 -18 69 -38 136 -44 148 -26 49 -94 68 -123 35 -8
-10 -25 -38 -36 -63 -26 -54 -108 -266 -117 -301 -7 -26 -32 -65 -39 -58 -2 2
-29 80 -61 174 -82 243 -89 255 -156 255 -48 0 -95 -63 -148 -197 -82 -209
-170 -363 -206 -363 -39 0 -115 323 -115 486 0 74 -26 108 -81 102 -44 -4 -54
-26 -74 -163 -27 -181 -79 -375 -101 -375 -3 0 -23 39 -45 88 -23 48 -53 114
-68 147 -16 33 -45 99 -66 147 -49 114 -71 138 -128 138 -49 0 -76 -21 -100
-80 l-15 -34 -7 69 c-10 87 1 604 14 710 9 66 8 83 -4 102 -18 28 -36 29 -64
6z"/>
<path d="M7802 3428 c-59 -32 -68 -121 -15 -155 63 -41 143 -1 143 72 0 65
-74 113 -128 83z"/>
<path d="M10595 3245 c-121 -42 -263 -312 -265 -502 0 -21 -41 -111 -117 -260
l-118 -228 -6 100 c-4 55 -10 180 -14 278 -7 153 -11 181 -27 203 -11 13 -25
24 -33 24 -7 0 -15 7 -18 14 -11 28 -67 49 -115 42 -63 -8 -118 -44 -188 -119
-141 -152 -218 -367 -170 -469 32 -68 120 -86 209 -43 41 19 124 95 175 160
l31 40 1 -267 c0 -242 -2 -270 -19 -300 -10 -18 -49 -82 -86 -143 -183 -299
-244 -490 -232 -733 6 -136 33 -253 81 -356 26 -58 39 -75 60 -80 15 -4 48
-20 75 -36 26 -17 53 -30 58 -30 6 0 37 13 69 30 32 16 64 30 71 30 15 0 28
42 48 150 36 200 47 363 51 763 l4 398 43 77 c24 42 66 120 94 172 28 52 78
148 113 212 34 65 65 120 70 123 5 3 23 -4 42 -16 138 -88 163 -106 166 -122
6 -28 -60 -48 -173 -54 -60 -3 -109 -11 -122 -19 -30 -19 -30 -64 -2 -90 28
-25 154 -25 259 1 64 15 81 24 118 62 39 40 42 47 42 99 0 81 -18 106 -128
178 -150 98 -146 74 -46 261 131 248 163 371 112 429 -30 33 -63 39 -113 21z
m-675 -464 c0 -36 -80 -199 -135 -277 -42 -58 -91 -103 -127 -117 -43 -16 -5
141 62 253 41 70 107 140 154 164 36 18 46 13 46 -23z m5 -1383 c-3 -106 -11
-242 -16 -303 -18 -227 -30 -341 -37 -369 -8 -29 -8 -29 -35 28 -107 225 -90
504 45 757 23 44 44 79 46 79 2 0 1 -87 -3 -192z"/>
</g>
</svg>
